<?xml version="1.0" encoding="utf-8"?>
<svg xmlns="http://www.w3.org/2000/svg" style="margin: auto; background: none; display: block; shape-rendering: auto;" width="280" height="250" preserveAspectRatio="xMidYMid">
<style type="text/css">
  text {
    text-anchor: middle; font-size: 80px; opacity: 0;
  }
</style>
<g style="transform-origin:140px 125px;transform:scale(1)">
<g transform="translate(140,125)">
  <g transform="translate(0,0)"><g class="path" style="transform: scale(1); transform-origin: -44.04px 2.5132px; animation: 1s linear -0.495s infinite normal forwards running beat-550a8164-dfb3-4393-94f3-47cfb754b567;"><path d="M83.44 3.28L83.44 3.28L83.44 3.28Q85.52 3.28 87.44 1.04L87.44 1.04L88.64 2L88.64 2Q88.40 2.32 88 2.80L88 2.80L88 2.80Q87.60 3.28 86.04 4.08L86.04 4.08L86.04 4.08Q84.48 4.88 82.64 4.88L82.64 4.88L82.64 4.88Q73.68 4.88 73.68-2.88L73.68-2.88L73.68-2.88Q73.68-5.28 74.24-10L74.24-10L74.24-10Q70.40-8.80 67.36-8.80L67.36-8.80L67.36-8.80Q62-8.80 56.64-12.08L56.64-12.08L56.64-12.08Q53.52-6.72 50.80-2.92L50.80-2.92L50.80-2.92Q48.08 0.88 44.48 4.48L44.48 4.48L44.48 4.48Q37.04 11.76 26.52 11.76L26.52 11.76L26.52 11.76Q16 11.76 9.76 5.04L9.76 5.04L9.76 5.04Q4.24-1.12 4.24-9.96L4.24-9.96L4.24-9.96Q4.24-18.80 9.92-25.68L9.92-25.68L9.92-25.68Q15.60-32.56 24.64-32.56L24.64-32.56L24.64-32.56Q33.68-32.56 38.40-27.20L38.40-27.20L38.40-27.20Q39.52-25.76 40-25.04L40-25.04L40-25.04Q44.32-23.20 49.84-18.96L49.84-18.96L49.84-18.96Q54-15.60 56-14.32L56-14.32L56-14.32Q57.12-16.40 59.08-19.92L59.08-19.92L59.08-19.92Q61.04-23.44 62.08-25.28L62.08-25.28L62.08-25.28Q63.12-27.12 65.20-30.48L65.20-30.48L65.20-30.48Q67.28-33.84 68.60-35.56L68.60-35.56L68.60-35.56Q69.92-37.28 72.12-39.88L72.12-39.88L72.12-39.88Q74.32-42.48 76.16-43.76L76.16-43.76L76.16-43.76Q81.68-47.68 85.44-48.32L85.44-48.32L85.44-48.32Q87.52-48.64 88.96-48.64L88.96-48.64L88.96-48.64Q90.40-48.64 92.16-48.60L92.16-48.60L92.16-48.60Q93.92-48.56 97.12-47.68L97.12-47.68L96.72-46.16L96.72-46.16Q94.80-46.72 92.64-46.96L92.64-46.96L92.64-46.96Q84.64-15.52 83.44 3.28zM42.56-15.76L42.56-15.76L42.56-15.76Q42.56-9.84 39.16-5.28L39.16-5.28L39.16-5.28Q35.76-0.72 30-0.72L30-0.72L30-0.72Q26.24-0.72 23.88-2.96L23.88-2.96L23.88-2.96Q21.52-5.20 21.52-7.60L21.52-7.60L21.52-7.60Q21.52-10 22.24-11.56L22.24-11.56L22.24-11.56Q22.96-13.12 23.88-13.92L23.88-13.92L23.88-13.92Q24.80-14.72 25.92-15.20L25.92-15.20L25.92-15.20Q27.44-16 28.32-16L28.32-16L28.48-14.40L28.48-14.40Q26.48-14.40 24.80-12.48L24.80-12.48L24.80-12.48Q23.12-10.56 23.12-8.16L23.12-8.16L23.12-8.16Q23.12-5.76 25-4.04L25-4.04L25-4.04Q26.88-2.32 30-2.32L30-2.32L30-2.32Q35.12-2.32 38.08-6.32L38.08-6.32L38.08-6.32Q41.04-10.32 41.04-15.20L41.04-15.20L41.04-15.20Q41.04-20.08 39.04-23.68L39.04-23.68L39.04-23.68Q34.64-25.36 30.32-25.36L30.32-25.36L30.32-25.36Q22-25.36 18.56-17.60L18.56-17.60L17.04-18.08L17.04-18.08Q17.92-20.08 19.84-22.40L19.84-22.40L19.84-22.40Q23.60-26.96 30.32-26.96L30.32-26.96L30.32-26.96Q33.92-26.96 37.44-25.92L37.44-25.92L37.28-26.16L37.28-26.16Q32.88-30.96 24.60-30.96L24.60-30.96L24.60-30.96Q16.32-30.96 11.08-24.56L11.08-24.56L11.08-24.56Q5.84-18.16 5.84-9.88L5.84-9.88L5.84-9.88Q5.84-1.60 10.96 3.92L10.96 3.92L10.96 3.92Q16.72 10.16 27.04 10.16L27.04 10.16L27.04 10.16Q36.48 10.16 43.52 3.04L43.52 3.04L43.52 3.04Q47.04-0.40 49.64-4.08L49.64-4.08L49.64-4.08Q52.24-7.76 55.28-12.96L55.28-12.96L55.28-12.96Q52.56-14.72 48.68-17.80L48.68-17.80L48.68-17.80Q44.80-20.88 41.20-22.72L41.20-22.72L41.20-22.72Q42.56-19.36 42.56-15.76zM60.48-18.96L57.44-13.44L57.44-13.44Q62.56-10.40 66.84-10.40L66.84-10.40L66.84-10.40Q71.12-10.40 74.48-11.76L74.48-11.76L74.48-11.76Q76.40-25.28 81.68-45.36L81.68-45.36L81.68-45.36Q75.28-42.32 69.92-34.56L69.92-34.56L69.92-34.56Q66-28.96 60.48-18.96L60.48-18.96" fill="#93dbe9" stroke="none" stroke-width="none" transform="translate(-94.7199764251709,20.95320176124573)" style="fill: rgb(147, 219, 233);"></path></g><g class="path" style="transform: scale(1); transform-origin: 16.96px 5.3932px; animation: 1s linear -0.33s infinite normal forwards running beat-550a8164-dfb3-4393-94f3-47cfb754b567;"><path d="M98.32-27.28L97.12-28.24L97.12-28.24Q99.52-31.12 103.16-31.12L103.16-31.12L103.16-31.12Q106.80-31.12 108.80-29.28L108.80-29.28L108.80-29.28Q110.80-27.44 110.80-24.08L110.80-24.08L110.80-23.60L110.80-23.60Q114.40-31.12 120.16-31.12L120.16-31.12L120.16-31.12Q126.32-31.12 126.32-24.72L126.32-24.72L126.32-24.72Q126.32-22.08 124.56-19.12L124.56-19.12L124.56-19.12Q122.80-16.16 121.04-13.48L121.04-13.48L121.04-13.48Q119.28-10.80 119.28-8.72L119.28-8.72L117.36-8.72L117.36-8.72Q117.36-11.68 120.80-16.72L120.80-16.72L120.80-16.72Q124.24-21.76 124.24-24.52L124.24-24.52L124.24-24.52Q124.24-27.28 123.16-28.28L123.16-28.28L123.16-28.28Q122.08-29.28 119.96-29.28L119.96-29.28L119.96-29.28Q117.84-29.28 115.80-27.44L115.80-27.44L115.80-27.44Q113.76-25.60 112.40-22.80L112.40-22.80L112.40-22.80Q110.24-18.64 109.52-16L109.52-16L109.52-15.92L106.64 0L97.04 0L102.32-29.52L102.32-29.52Q99.92-29.28 98.32-27.28L98.32-27.28" fill="#93dbe9" stroke="none" stroke-width="none" transform="translate(-94.7199764251709,20.95320176124573)" style="fill: rgb(104, 156, 197);"></path></g><g class="path" style="transform: scale(1); transform-origin: 47.04px 5.7532px; animation: 1s linear -0.165s infinite normal forwards running beat-550a8164-dfb3-4393-94f3-47cfb754b567;"><path d="M145.28-31.12L145.28-31.12L145.28-31.12Q155.44-31.12 155.44-23.04L155.44-23.04L155.44-23.04Q155.44-18 150.68-15.40L150.68-15.40L150.68-15.40Q145.92-12.80 137.12-12.72L137.12-12.72L137.12-12.72Q136.96-9.84 136.96-8.16L136.96-8.16L136.96-8.16Q136.96-4.56 138.60-2.84L138.60-2.84L138.60-2.84Q140.24-1.12 142.72-1.12L142.72-1.12L142.72-1.12Q145.20-1.12 147.24-2.08L147.24-2.08L147.24-2.08Q149.28-3.04 150.48-4.36L150.48-4.36L150.48-4.36Q151.68-5.68 152.56-7.12L152.56-7.12L152.56-7.12Q154.16-9.76 154.16-10.48L154.16-10.48L155.60-9.84L155.60-9.84Q155.36-8.56 154.16-6.44L154.16-6.44L154.16-6.44Q152.96-4.32 151.52-2.96L151.52-2.96L151.52-2.96Q150.08-1.60 147.28-0.44L147.28-0.44L147.28-0.44Q144.48 0.72 141.04 0.72L141.04 0.72L141.04 0.72Q134.56 0.72 131.24-2.36L131.24-2.36L131.24-2.36Q127.92-5.44 127.92-10.80L127.92-10.80L127.92-10.80Q127.92-20.32 132.64-25.72L132.64-25.72L132.64-25.72Q137.36-31.12 145.28-31.12zM153.44-23.04L153.44-23.04Q153.44-25.68 151.88-27.40L151.88-27.40L151.88-27.40Q150.32-29.12 147.24-29.12L147.24-29.12L147.24-29.12Q144.16-29.12 141.24-25.44L141.24-25.44L141.24-25.44Q138.32-21.76 137.36-14.56L137.36-14.56L137.36-14.56Q153.44-14.64 153.44-23.04L153.44-23.04" fill="#93dbe9" stroke="none" stroke-width="none" transform="translate(-94.7199764251709,20.95320176124573)" style="fill: rgb(94, 111, 163);"></path></g><g class="path" style="transform: scale(1); transform-origin: 81.56px -4.6068px; animation: 1s linear 0s infinite normal forwards running beat-550a8164-dfb3-4393-94f3-47cfb754b567;"><path d="M171.28-15.44L171.28-15.44L168.40 0L158.88 0L167.92-50.24L167.92-50.24Q165.52-50 163.92-48L163.92-48L162.72-48.96L162.72-48.96Q165.12-51.84 168.76-51.84L168.76-51.84L168.76-51.84Q172.40-51.84 174.40-50L174.40-50L174.40-50Q176.40-48.16 176.40-44.80L176.40-44.80L176.40-44.80Q176.40-44.16 176.24-42.72L176.24-42.72L176.24-42.72Q174.40-32.56 172.24-20.80L172.24-20.80L172.24-20.80Q174.24-25.68 178-28.40L178-28.40L178-28.40Q181.76-31.12 186-31.12L186-31.12L186-31.12Q190.24-31.12 191.96-29.44L191.96-29.44L191.96-29.44Q193.68-27.76 193.68-25.24L193.68-25.24L193.68-25.24Q193.68-22.72 192.16-21.12L192.16-21.12L192.16-21.12Q190.64-19.52 188.20-19.52L188.20-19.52L188.20-19.52Q185.76-19.52 184.44-20.92L184.44-20.92L184.44-20.92Q183.12-22.32 183.12-25.08L183.12-25.08L183.12-25.08Q183.12-27.84 185.04-29.28L185.04-29.28L185.04-29.28Q177.36-28.40 172.80-17.92L172.80-17.92L172.80-17.92Q173.92-18.08 174.72-18.08L174.72-18.08L174.72-18.08Q178.96-18.08 181.40-16.40L181.40-16.40L181.40-16.40Q183.84-14.72 184.56-12.28L184.56-12.28L184.56-12.28Q185.28-9.84 185.60-7.40L185.60-7.40L185.60-7.40Q185.92-4.96 186.64-3.28L186.64-3.28L186.64-3.28Q187.36-1.60 189.20-1.60L189.20-1.60L189.20-1.60Q191.04-1.60 192.08-3.12L192.08-3.12L193.28-2.16L193.28-2.16Q192.72-1.04 190.80-0.16L190.80-0.16L190.80-0.16Q188.88 0.72 185.88 0.72L185.88 0.72L185.88 0.72Q182.88 0.72 180.60-0.80L180.60-0.80L180.60-0.80Q178.32-2.32 177.44-4.60L177.44-4.60L177.44-4.60Q176.56-6.88 176-9.12L176-9.12L176-9.12Q174.48-14.88 171.28-15.44" fill="#93dbe9" stroke="none" stroke-width="none" transform="translate(-94.7199764251709,20.95320176124573)" style="fill: rgb(59, 67, 104);"></path></g></g>
</g>
</g>
<style id="beat-550a8164-dfb3-4393-94f3-47cfb754b567" data-anikit="">@keyframes beat-550a8164-dfb3-4393-94f3-47cfb754b567
{
  0% {
    animation-timing-function: cubic-bezier(0.1028,0.2484,0.1372,0.849);
    transform: scale(1);
  }
  34% {
    animation-timing-function: cubic-bezier(0.7116,0.2095,0.8159,0.6876);
    transform: scale(1.2);
  }
  68% {
    animation-timing-function: cubic-bezier(0.1475,0.2888,0.294,0.883);
    transform: scale(1.0268);
  }
  84% {
    animation-timing-function: cubic-bezier(0.8176,0.2193,0.867,0.6889);
    transform: scale(1.0932);
  }
  100% {
    transform: scale(1);
  }
}</style></svg>